<svg width="15" height="15" viewBox="0 0 15 15" fill="none" xmlns="http://www.w3.org/2000/svg">
    <circle cx="7.5" cy="7.5" r="7.5" fill="#B3ECFF"/>
    <path d="M7.50839 12.072C7.24439 12.072 7.02439 12 6.84839 11.856C6.68039 11.712 6.59639 11.5 6.59639 11.22V6.84C6.59639 6.56 6.68439 6.348 6.86039 6.204C7.03639 6.06 7.25239 5.988 7.50839 5.988C7.76439 5.988 7.97639 6.06 8.14439 6.204C8.32039 6.348 8.40839 6.56 8.40839 6.84V11.22C8.40839 11.5 8.32039 11.712 8.14439 11.856C7.97639 12 7.76439 12.072 7.50839 12.072ZM7.50839 5.028C7.18839 5.028 6.93639 4.948 6.75239 4.788C6.56839 4.62 6.47639 4.396 6.47639 4.116C6.47639 3.836 6.56839 3.616 6.75239 3.456C6.93639 3.296 7.18839 3.216 7.50839 3.216C7.82039 3.216 8.06839 3.3 8.25239 3.468C8.44439 3.628 8.54039 3.844 8.54039 4.116C8.54039 4.396 8.44839 4.62 8.26439 4.788C8.08039 4.948 7.82839 5.028 7.50839 5.028Z" fill="white"/>
</svg>
